<svg version="1.1" id="Layer_1" xmlns="http://www.w3.org/2000/svg" xmlns:xlink="http://www.w3.org/1999/xlink" x="0px" y="0px" width="100%" viewBox="0 0 1024 528" enable-background="new 0 0 1024 528" xml:space="preserve">
<path fill="#000000" opacity="1.000000" stroke="none" d="
M463.836517,329.802734 
	C473.597565,339.005798 484.971283,345.903564 496.445282,352.668427 
	C518.114258,365.443939 541.698669,373.649078 565.369202,381.659821 
	C567.024414,382.220001 569.010376,382.183746 570.114807,384.011292 
	C569.172058,385.852478 567.493713,385.169495 566.146362,385.171722 
	C542.493713,385.210876 518.841003,385.187653 495.188324,385.218811 
	C492.646881,385.222168 490.237915,385.000092 487.988068,383.648926 
	C468.565857,371.984528 449.220734,360.206116 431.826599,345.557739 
	C429.154419,343.307434 426.004822,341.267426 424.195587,338.419037 
	C419.619415,331.214325 413.040039,331.905701 404.816498,332.775452 
	C421.538910,353.984772 442.652985,368.708160 463.531311,383.152161 
	C462.989777,385.510559 461.646484,385.250061 460.557983,385.252533 
	C443.403778,385.291840 426.268799,384.781372 409.172211,383.303406 
	C406.137573,383.041046 403.190399,382.232086 400.770294,380.389069 
	C381.951752,366.057922 366.607513,348.886505 360.137634,325.630463 
	C354.890198,306.768402 361.004028,290.627716 374.611389,276.919830 
	C391.401886,260.005341 411.622681,248.798645 433.794739,240.782379 
	C449.549622,235.086227 465.673462,231.184830 482.593323,231.708862 
	C484.636444,231.772156 487.013672,231.021088 488.462555,233.445328 
	C488.209106,236.044464 485.819672,236.177368 484.179413,237.027695 
	C470.364716,244.189468 457.291992,252.284790 446.657501,263.959259 
	C436.067322,275.585052 434.986176,288.573975 440.663574,302.447113 
	C444.517181,311.863770 451.143433,319.359467 459.662842,325.956940 
	C461.387115,327.478638 462.611816,328.640686 463.836517,329.802734 
M403.522919,305.692108 
	C402.629883,302.791931 402.548004,299.794464 402.642944,296.811279 
	C402.731873,294.017761 401.364349,293.023804 398.771667,292.810028 
	C396.168274,292.595428 394.832733,293.514313 394.153870,296.112457 
	C392.669922,301.791565 393.292267,307.309998 394.975555,312.773834 
	C396.151306,316.590393 399.606201,318.173187 403.684113,316.692810 
	C407.687317,315.239594 404.497345,312.531860 404.498779,310.419189 
	C404.499664,309.129761 403.947113,307.839935 403.522919,305.692108 
M409.771881,269.277802 
	C408.359497,270.672516 406.829163,271.969513 405.569061,273.490417 
	C404.388733,274.915009 402.111359,276.636230 404.198425,278.487152 
	C406.233276,280.291687 408.653473,280.042755 410.621948,277.514862 
	C413.664734,273.607269 416.970306,269.904724 420.145874,266.099670 
	C420.868011,265.234344 421.823853,264.386536 420.547943,262.469543 
	C416.133545,262.645081 413.641235,266.507782 409.771881,269.277802 
M442.647736,250.133209 
	C446.583008,247.645615 451.606415,246.681900 454.134369,242.168961 
	C446.700439,244.429947 439.508423,247.017258 434.006775,252.745728 
	C434.844696,253.164749 435.523285,253.244125 436.082764,253.022675 
	C438.075409,252.233871 440.027527,251.342743 442.647736,250.133209 
z" data-index="0" style="opacity: 1;"></path>
<path fill="#000000" opacity="1.000000" stroke="none" d="
M584.000000,364.169800 
	C568.012512,364.167664 552.525024,364.157104 537.037537,364.169312 
	C534.695129,364.171143 532.388245,364.141724 530.197144,363.113464 
	C513.154175,355.115448 496.271759,346.832062 480.899780,335.815186 
	C474.719330,331.385803 474.624908,331.117798 478.246521,324.641876 
	C482.553101,316.941101 486.968384,309.299927 491.178894,301.547302 
	C492.489838,299.133514 494.206146,297.964264 496.894318,297.362701 
	C510.876617,294.233459 524.332153,297.319305 537.827515,300.413910 
	C548.671082,302.900421 559.426697,306.122314 570.815063,303.853271 
	C574.430786,303.132874 578.014282,302.354553 581.339600,300.848694 
	C584.445129,299.442322 586.257935,300.394318 587.920471,303.070740 
	C597.408264,318.344940 607.137024,333.472076 616.445068,348.854248 
	C621.562073,357.310364 617.411072,364.077484 607.481323,364.155243 
	C599.821350,364.215240 592.160461,364.168213 584.000000,364.169800 
M525.272522,321.942535 
	C522.846558,315.897278 518.628906,313.796783 513.797729,316.227753 
	C509.724945,318.277100 508.250458,323.292999 510.568817,327.299561 
	C512.407166,330.476593 515.380005,331.323944 518.704224,330.748108 
	C523.118469,329.983490 525.012207,326.876587 525.272522,321.942535 
M553.594727,332.077911 
	C549.015930,332.880737 547.570068,335.898895 548.487305,340.031372 
	C549.226868,343.363800 551.934082,344.356049 555.022461,343.744080 
	C558.524170,343.050262 559.827332,340.429016 559.577454,337.123810 
	C559.345276,334.052765 557.303711,332.531921 553.594727,332.077911 
z" data-index="1" style="opacity: 1;"></path>
<path fill="#000000" opacity="1.000000" stroke="none" d="
M464.178741,329.721283 
	C462.611816,328.640686 461.387115,327.478638 459.965027,326.044189 
	C455.129242,322.166840 455.819122,318.683258 458.747589,313.894958 
	C472.215973,291.872620 485.168335,269.535339 498.437805,247.390137 
	C501.352661,242.525589 502.895264,237.587830 502.746887,231.822510 
	C502.429749,219.499939 502.616150,207.164749 502.561920,194.834869 
	C502.547638,191.586884 502.337677,188.774185 498.039825,187.810745 
	C494.844330,187.094406 493.382263,184.102402 493.920380,180.713120 
	C494.448120,177.389496 496.536438,175.415680 499.894104,174.883621 
	C500.548645,174.779922 501.222046,174.760406 501.886749,174.760345 
	C526.380249,174.758133 550.873718,174.765396 575.367188,174.761887 
	C577.434326,174.761597 579.335327,175.183792 580.892700,176.646347 
	C584.391846,179.932510 583.846619,185.460190 579.249878,187.424637 
	C575.745728,188.922119 575.181946,191.020752 575.213989,194.314011 
	C575.341980,207.475998 575.363403,220.641144 575.205688,233.802505 
	C575.155396,237.993652 576.351990,241.538513 578.484131,245.078827 
	C596.703613,275.331116 614.744385,305.691284 633.016968,335.911316 
	C638.931946,345.693817 642.182312,355.688660 636.810974,366.604340 
	C631.381775,377.637329 622.469788,383.971313 609.930298,384.258514 
	C600.104553,384.483582 590.247437,384.730774 580.445251,384.204498 
	C570.342468,383.662109 561.270813,378.941650 551.918579,375.546509 
	C549.569397,374.693695 546.541809,374.751495 544.909363,371.902924 
	C546.453552,369.965363 548.603333,370.718689 550.411377,370.712036 
	C569.072876,370.643127 587.734863,370.690552 606.396545,370.643097 
	C608.540405,370.637634 610.753723,370.526062 612.814941,369.996613 
	C624.086670,367.101227 628.889587,356.925018 623.182068,346.845093 
	C612.595764,328.148834 601.585693,309.691406 590.666382,291.185120 
	C582.286499,276.982697 573.811646,262.835907 565.299683,248.712158 
	C562.731812,244.451218 561.518799,240.004791 561.522583,234.978180 
	C561.532715,221.321091 561.084839,207.663498 561.112427,194.006714 
	C561.120972,189.800507 559.710693,188.696747 555.570435,188.789261 
	C542.778015,189.075104 529.975159,188.893631 517.088867,188.893631 
	C515.744690,190.434326 516.316040,192.353622 516.309937,194.105911 
	C516.260193,208.268692 516.229736,222.432098 516.321960,236.594482 
	C516.351135,241.067596 515.298645,245.139282 513.050232,248.973419 
	C497.883942,274.835724 482.734100,300.707703 467.587555,326.581635 
	C466.827484,327.879974 466.190430,329.268372 464.178741,329.721283 
z" data-index="2" style="opacity: 1;"></path>
<path fill="#000000" opacity="1.000000" stroke="none" d="
M515.011047,148.531219 
	C516.655884,143.100967 520.193420,140.319702 525.313416,140.023376 
	C529.853821,139.760574 533.279785,142.156891 535.481384,146.047256 
	C537.780334,150.109665 537.091553,154.076141 534.404663,157.715820 
	C531.567322,161.559326 526.474670,162.967896 521.934998,161.300125 
	C516.932678,159.462418 514.779297,155.666428 515.011047,148.531219 
z" data-index="3" style="opacity: 1;"></path>
<path fill="#000000" opacity="1.000000" stroke="none" d="
M537.700195,282.978333 
	C538.805359,276.105713 542.875000,272.081696 548.293152,272.081665 
	C552.861572,272.081604 557.695618,276.382599 558.265686,280.954559 
	C558.919189,286.195404 555.535583,291.218079 550.352600,292.700928 
	C544.518433,294.370087 539.224060,290.474365 537.700195,282.978333 
z" data-index="4"></path>
<path fill="#000000" opacity="1.000000" stroke="none" d="
M544.205078,116.760040 
	C549.655273,116.706017 553.367188,118.910233 555.042053,123.683746 
	C556.605896,128.141052 554.736694,133.148590 550.931763,135.585678 
	C546.997070,138.105942 542.985962,137.857407 539.222595,135.268234 
	C535.939270,133.009338 534.419800,129.650742 534.997559,125.741005 
	C535.733032,120.764847 538.824402,117.770836 544.205078,116.760040 
z" data-index="5" style="opacity: 1;"></path>
<path fill="#000000" opacity="1.000000" stroke="none" d="
M531.709229,257.715912 
	C526.791260,255.421021 524.177734,251.968323 525.361206,246.857010 
	C526.396973,242.383926 529.438354,239.708389 534.296082,239.702103 
	C539.802002,239.694977 544.028015,243.801422 543.932129,248.998734 
	C543.822510,254.946671 539.153992,258.436829 531.709229,257.715912 
z" data-index="6"></path>
<path fill="#000000" opacity="1.000000" stroke="none" d="
M548.492432,155.349609 
	C554.597229,155.716187 558.072327,159.459915 556.871582,164.007797 
	C555.915405,167.629456 553.467834,169.723679 549.702148,169.697372 
	C546.334717,169.673874 544.057190,167.676514 543.249268,164.489731 
	C542.146240,160.138306 544.029297,157.135605 548.492432,155.349609 
z" data-index="7"></path>
<path fill="#000000" opacity="1.000000" stroke="none" d="
M541.010254,215.694443 
	C546.865173,214.070999 550.321045,215.542160 551.168335,219.849365 
	C551.878967,223.461273 550.924561,226.552383 547.328308,228.163132 
	C543.924988,229.687485 541.001038,228.501511 539.054688,225.602875 
	C536.665222,222.044373 537.302917,218.671570 541.010254,215.694443 
z" data-index="8"></path>
</svg>